<?xml version="1.0" standalone="no"?>
<!DOCTYPE svg PUBLIC "-//W3C//DTD SVG 20010904//EN"
 "http://www.w3.org/TR/2001/REC-SVG-20010904/DTD/svg10.dtd">
<svg version="1.0" xmlns="http://www.w3.org/2000/svg"
 width="600.000000pt" height="600.000000pt" viewBox="0 0 600.000000 600.000000"
 preserveAspectRatio="xMidYMid meet">
<metadata>
Created by potrace 1.11, written by Peter Selinger 2001-2013
</metadata>
<g transform="translate(0.000000,600.000000) scale(0.100000,-0.100000)"
fill="#000000" stroke="none">
<path d="M3569 5666 c-9 -10 -622 -36 -1114 -47 -33 -1 -66 -6 -72 -12 -17
-13 -16 -65 1 -115 8 -22 17 -65 21 -96 8 -64 24 -86 63 -86 40 0 451 39 491
46 l34 7 -5 -324 c-3 -178 -9 -331 -12 -340 -6 -13 -27 -18 -94 -23 -190 -15
-292 -28 -397 -53 -170 -39 -149 -50 -206 112 -27 77 -67 214 -89 303 -23 90
-54 200 -70 245 -17 44 -30 93 -30 108 0 15 -7 35 -16 44 -19 19 -43 17 -209
-22 -114 -26 -163 -45 -170 -66 -6 -16 -71 -391 -95 -542 -10 -66 -26 -194
-35 -285 -9 -90 -19 -168 -21 -172 -3 -4 -35 -24 -72 -45 -150 -82 -378 -253
-507 -379 -89 -87 -280 -304 -323 -366 -37 -53 -101 -179 -144 -282 -35 -84
-118 -325 -118 -343 0 -7 -9 -37 -21 -68 -14 -37 -25 -55 -34 -51 -7 2 -21 -4
-30 -14 -16 -17 -16 -21 -1 -51 15 -29 14 -44 -4 -192 -29 -234 -23 -464 18
-679 5 -27 8 -48 5 -48 -2 0 -17 7 -33 15 -33 17 -57 11 -66 -17 -8 -26 26
-61 76 -78 37 -12 39 -16 65 -98 39 -125 89 -228 210 -426 135 -224 192 -303
357 -496 106 -124 155 -172 243 -238 151 -114 291 -207 350 -233 28 -12 78
-34 113 -50 35 -16 98 -43 140 -60 42 -18 80 -35 84 -38 4 -3 -22 -26 -58 -50
-35 -24 -67 -47 -70 -52 -3 -5 618 -9 1447 -9 l1452 0 -19 23 c-49 59 -113
122 -153 150 l-44 30 74 37 c187 91 490 284 645 411 196 160 336 352 397 544
147 462 143 430 141 1115 0 246 -3 320 -17 380 -9 41 -21 104 -27 139 -12 65
-60 228 -101 336 -37 100 -157 268 -298 420 -46 50 -108 121 -139 159 -30 38
-73 85 -95 105 -70 63 -224 176 -301 221 -23 14 -57 34 -75 45 l-33 20 5 68
c3 37 14 108 23 157 17 86 17 91 -1 109 -23 27 -58 37 -194 56 -130 19 -140
22 -164 47 -21 21 -50 24 -65 5 -6 -7 -19 -44 -29 -83 l-18 -71 -72 40 -73 39
0 81 c0 156 74 361 157 438 36 33 49 39 86 39 52 0 80 -19 118 -78 24 -38 29
-57 29 -107 0 -56 -3 -64 -30 -88 -47 -43 -36 -90 22 -93 18 -1 53 -10 78 -19
106 -39 197 -29 225 26 20 38 19 151 -1 220 -42 143 -138 309 -209 364 -97 73
-245 72 -377 -3 -66 -38 -197 -171 -228 -232 -35 -69 -56 -145 -81 -304 -16
-95 -28 -146 -36 -146 -7 0 -72 21 -145 46 -191 65 -195 66 -267 62 l-66 -3 3
195 c2 107 -1 263 -6 345 -6 83 -9 151 -8 152 0 0 87 -3 191 -9 434 -22 392
-22 418 5 39 38 62 203 33 242 -12 17 -29 19 -137 22 -68 1 -138 5 -155 8 -17
3 -32 3 -35 1z m-1606 -717 c83 -218 88 -236 70 -243 -8 -3 -27 -6 -42 -6 -15
0 -56 -11 -91 -25 l-63 -25 7 123 c4 67 11 145 16 172 5 28 12 76 16 108 3 36
10 57 17 54 6 -2 37 -73 70 -158z"/>
<path d="M5164 15 c-17 -13 -8 -14 91 -14 99 0 108 1 91 14 -27 20 -155 20
-182 0z"/>
</g>
</svg>
